# xmcd
#
# Track frame offsets:
#	150
#	13605
#	25965
#	36660
#	49557
#	63865
#	74947
#	86590
#	95762
#	113572
#	125862
#	139007
#	150272
#	163855
#	178055
#	189965
#	203635
#	218020
#	227775
#	239857
#
# Disc length: 3416 seconds
#
# Revision: 3
# Processed by: cddbd v1.4PL0 Copyright (c) Steve Scherf et al.
#
# Submitted via: MusicManager v6.1.1.0
#
DISCID=220d5614
DTITLE=Crystal Gayle - The Crystal Gayle Collection CD 2
DYEAR=1900
DGENRE=country
TTITLE0=Talking IN Your Sleep
TTITLE1=What I've Been Needin
TTITLE2=High Time
TTITLE3=Come Home Daddy
TTITLE4=Right In The Palm Of Your Hand
TTITLE5=You
TTITLE6=A Woman's Heart (Is A Handy Place To Be)
TTITLE7=Let's Do It Right
TTITLE8=One More Time
TTITLE9=I'm Not So Far Away
TTITLE10=Why Have You Left The One You Left Me For
TTITLE11=All I Wanna Do In Life
TTITLE12=The Wayward Wind
TTITLE13=Green Door
TTITLE14=Sweet Baby On My Mind
TTITLE15=Hands
TTITLE16=Make A Dream Come True
TTITLE17=Funny
TTITLE18=Beyond You
TTITLE19=Going Down Slow
EXTD=
EXTT0=
EXTT1=
EXTT2=
EXTT3=
EXTT4=
EXTT5=
EXTT6=
EXTT7=
EXTT8=
EXTT9=
EXTT10=
EXTT11=
EXTT12=
EXTT13=
EXTT14=
EXTT15=
EXTT16=
EXTT17=
EXTT18=
EXTT19=
PLAYORDER=
